<svg width="25" height="25" viewBox="0 0 25 25" fill="none" xmlns="http://www.w3.org/2000/svg">
<mask id="mask0_3_121" style="mask-type:luminance" maskUnits="userSpaceOnUse" x="0" y="0" width="25" height="25">
<rect x="0.296387" y="0.917969" width="24" height="24" fill="white"/>
</mask>
<g mask="url(#mask0_3_121)">
<path fill-rule="evenodd" clip-rule="evenodd" d="M20.2964 5.91797V16.918H12.2964V18.918H20.2964C21.401 18.918 22.2964 18.0225 22.2964 16.918V5.91797C22.2964 4.8134 21.401 3.91797 20.2964 3.91797H7.29639C6.19182 3.91797 5.29639 4.8134 5.29639 5.91797V7.91797H7.29639V5.91797H20.2964ZM10.2964 9.91797H4.29639L4.29639 19.918H10.2964V9.91797ZM4.29639 7.91797C3.19182 7.91797 2.29639 8.8134 2.29639 9.91797V19.918C2.29639 21.0225 3.19182 21.918 4.29639 21.918H10.2964C11.401 21.918 12.2964 21.0225 12.2964 19.918V9.91797C12.2964 8.8134 11.401 7.91797 10.2964 7.91797H4.29639C4.29639 7.91797 3.19182 7.91797 4.29639 7.91797Z" fill="#F4A033"/>
</g>
</svg>
